<svg width="38" height="38" viewBox="0 0 38 38" fill="none" xmlns="http://www.w3.org/2000/svg">
<path d="M24.75 18.75C24.75 19.9367 24.3981 21.0967 23.7388 22.0834C23.0795 23.0701 22.1425 23.8392 21.0461 24.2933C19.9497 24.7474 18.7433 24.8662 17.5795 24.6347C16.4156 24.4032 15.3465 23.8318 14.5074 22.9926C13.6682 22.1535 13.0968 21.0844 12.8653 19.9205C12.6338 18.7567 12.7526 17.5503 13.2067 16.4539C13.6608 15.3575 14.4299 14.4205 15.4166 13.7612C16.4033 13.1019 17.5633 12.75 18.75 12.75C20.3407 12.7518 21.8658 13.3846 22.9906 14.5094C24.1154 15.6342 24.7482 17.1593 24.75 18.75ZM37.5 10.5V27C37.4968 29.7838 36.3896 32.4527 34.4211 34.4211C32.4527 36.3896 29.7838 37.4968 27 37.5H10.5C7.7162 37.4968 5.04733 36.3896 3.07889 34.4211C1.11044 32.4527 0.00317604 29.7838 0 27V10.5C0.00317604 7.7162 1.11044 5.04733 3.07889 3.07889C5.04733 1.11044 7.7162 0.00317604 10.5 0H27C29.7838 0.00317604 32.4527 1.11044 34.4211 3.07889C36.3896 5.04733 37.4968 7.7162 37.5 10.5ZM27.75 18.75C27.75 16.97 27.2222 15.2299 26.2332 13.7499C25.2443 12.2698 23.8387 11.1163 22.1942 10.4351C20.5496 9.7539 18.74 9.57567 16.9942 9.92293C15.2484 10.2702 13.6447 11.1274 12.386 12.386C11.1274 13.6447 10.2702 15.2484 9.92293 16.9942C9.57567 18.74 9.7539 20.5496 10.4351 22.1942C11.1163 23.8387 12.2698 25.2443 13.7499 26.2332C15.2299 27.2222 16.97 27.75 18.75 27.75C21.1361 27.7473 23.4238 26.7982 25.111 25.111C26.7982 23.4238 27.7473 21.1361 27.75 18.75ZM30.75 9C30.75 8.55499 30.618 8.11998 30.3708 7.74997C30.1236 7.37996 29.7722 7.09157 29.361 6.92127C28.9499 6.75097 28.4975 6.70642 28.061 6.79323C27.6246 6.88005 27.2237 7.09434 26.909 7.40901C26.5943 7.72368 26.38 8.12459 26.2932 8.56105C26.2064 8.9975 26.251 9.4499 26.4213 9.86104C26.5916 10.2722 26.88 10.6236 27.25 10.8708C27.62 11.118 28.055 11.25 28.5 11.25C29.0967 11.25 29.669 11.0129 30.091 10.591C30.5129 10.169 30.75 9.59674 30.75 9Z" fill="#25282B"/>
</svg>
