<svg width="40" height="32" viewBox="0 0 40 32" fill="none" xmlns="http://www.w3.org/2000/svg">
<path d="M32.2931 15.9619C36.7514 15.9619 39.7558 19.0629 39.7558 23.6575C39.7558 27.7921 36.3027 31.2367 31.6257 31.2367C26.5029 31.2367 22.7176 27.1021 22.7176 20.7866C22.7176 6.43192 33.1847 0.690047 39.7558 0V6.31549C35.3003 7.11912 30.2911 11.5973 30.0667 16.5384C30.2911 16.4248 31.1799 15.9619 32.2931 15.9619ZM9.5783 15.9619C14.031 15.9619 17.0382 19.0629 17.0382 23.6575C17.0382 27.7921 13.5851 31.2367 8.90814 31.2367C3.78532 31.2367 0 27.1021 0 20.7866C0 6.43192 10.4671 0.690047 17.0382 0V6.31549C12.5827 7.11912 7.57348 11.5973 7.34914 16.5384C7.57348 16.4248 8.4623 15.9619 9.5783 15.9619Z" fill="black"/>
</svg>
