<svg width="30" height="30" viewBox="0 0 30 30" fill="none" xmlns="http://www.w3.org/2000/svg">
<path fill-rule="evenodd" clip-rule="evenodd" d="M2.5 15C2.5 14.3097 3.05965 13.75 3.74999 13.75H26.25C26.9403 13.75 27.5 14.3097 27.5 15C27.5 15.6905 26.9403 16.2501 26.25 16.2501H3.74999C3.05965 16.2501 2.5 15.6905 2.5 15Z" fill="white"/>
<path fill-rule="evenodd" clip-rule="evenodd" d="M17.8662 6.61612C18.3542 6.12796 19.1458 6.12796 19.6339 6.61612L27.1339 14.1162C27.622 14.6042 27.622 15.3958 27.1339 15.8839L19.6339 23.3839C19.1458 23.872 18.3542 23.872 17.8662 23.3839C17.378 22.8958 17.378 22.1042 17.8662 21.6162L24.4822 15L17.8662 8.38389C17.378 7.89572 17.378 7.10428 17.8662 6.61612Z" fill="white"/>
</svg>
